<svg width="510" height="274" viewBox="0 0 510 274" fill="none" xmlns="http://www.w3.org/2000/svg">
<g clip-path="url(#clip0)">
<path d="M85.7597 121.792L83.0683 106.528L78.963 108.706L78.1997 104.377L83.0401 101.442L87.1104 100.724L90.6724 120.926L85.7597 121.792Z" fill="#231F20"/>
<path d="M102.777 97.9629L98.7671 106.144C99.4058 105.569 100.208 105.208 101.062 105.111C104.398 104.523 107.808 106.45 108.577 110.812C109.294 114.874 106.503 118.557 102.082 119.336C97.203 120.197 93.6169 117.759 92.8742 113.547C92.5049 111.338 92.8223 109.07 93.7837 107.048L97.5057 98.8924L102.777 97.9629ZM97.7349 112.776C98.057 114.602 99.2853 115.813 101.337 115.451C101.748 115.38 102.14 115.225 102.489 114.997C102.838 114.769 103.137 114.472 103.367 114.125C103.598 113.778 103.756 113.387 103.831 112.977C103.906 112.567 103.897 112.146 103.805 111.74C103.478 109.888 102.177 108.75 100.216 109.096C99.7982 109.146 99.3955 109.285 99.0359 109.504C98.6764 109.724 98.3683 110.018 98.1328 110.367C97.8973 110.717 97.7398 111.112 97.6711 111.528C97.6025 111.944 97.6242 112.369 97.7349 112.776V112.776Z" fill="#231F20"/>
<path d="M129.003 114.589C122.889 115.667 119.043 112.294 118.118 107.048L117.661 104.454C116.728 99.1656 119.196 94.7229 125.31 93.6449C131.423 92.5668 135.267 95.9311 136.194 101.186L136.651 103.78C137.576 109.026 135.133 113.508 129.003 114.589ZM126.026 97.7068C123.14 98.2157 122.07 100.391 122.579 103.277L123.129 106.396C123.638 109.282 125.389 110.969 128.275 110.46C131.16 109.951 132.237 107.766 131.728 104.88L131.178 101.761C130.669 98.8747 128.913 97.2063 126.027 97.7152L126.026 97.7068Z" fill="#231F20"/>
<path d="M149.283 106.782C149.806 106.734 150.314 106.577 150.773 106.321C151.232 106.065 151.633 105.715 151.948 105.295C152.264 104.875 152.488 104.393 152.606 103.881C152.724 103.368 152.733 102.837 152.633 102.321L157.221 101.512C157.917 105.801 155.403 109.934 150.065 110.875C143.826 111.975 140.139 108.575 139.214 103.328L138.739 100.634C137.812 95.3796 140.115 90.9315 146.354 89.8314C151.692 88.8902 155.468 91.9139 156.279 96.1741L151.692 96.983C151.608 96.4644 151.417 95.9691 151.131 95.5287C150.844 95.0884 150.469 94.7127 150.029 94.4259C149.589 94.1391 149.094 93.9475 148.575 93.8633C148.057 93.7791 147.526 93.8042 147.018 93.937C144.015 94.4665 143.157 96.6732 143.66 99.5257L144.211 102.645C144.721 105.539 146.28 107.311 149.283 106.782Z" fill="#231F20"/>
<path d="M172.767 85.6206L173.502 89.791L168.097 90.744L170.921 106.758L165.916 107.641L163.093 91.6264L157.638 92.5882L156.902 88.4178L172.767 85.6206Z" fill="#231F20"/>
<path d="M187.522 104.27C181.4 105.35 177.563 101.976 176.638 96.7293L176.18 94.1353C175.248 88.8473 177.707 84.406 183.829 83.3265C189.951 82.247 193.779 85.6142 194.705 90.8689L195.163 93.4629C196.088 98.7092 193.636 103.192 187.522 104.27ZM184.545 87.3885C181.659 87.8973 180.581 90.0741 181.09 92.96L181.64 96.0794C182.149 98.9654 183.908 100.65 186.794 100.142C189.68 99.6327 190.788 97.4765 190.273 94.5573L189.723 91.4378C189.214 88.5519 187.433 86.8879 184.547 87.3968L184.545 87.3885Z" fill="#231F20"/>
<path d="M210.326 99.8273L200.543 101.552L196.98 81.3511L206.647 79.6465C210.451 78.9759 212.893 80.9274 213.398 83.7883C213.624 84.7198 213.569 85.6975 213.239 86.5976C212.91 87.4977 212.32 88.2798 211.546 88.8449C213.846 89.0587 215.787 90.1182 216.285 92.9457C216.887 96.4086 214.296 99.1273 210.326 99.8273ZM206.942 87.9023C207.227 87.8682 207.501 87.7719 207.745 87.62C207.989 87.4682 208.196 87.2646 208.352 87.0236C208.508 86.7827 208.609 86.5103 208.649 86.2259C208.688 85.9414 208.664 85.6519 208.578 85.3778C208.549 85.1006 208.459 84.8333 208.315 84.5947C208.17 84.3561 207.976 84.152 207.744 83.9969C207.513 83.8417 207.25 83.7392 206.974 83.6967C206.699 83.6541 206.417 83.6725 206.15 83.7505L202.513 84.3917L203.249 88.5621L206.942 87.9023ZM208.599 91.592L203.928 92.4156L204.702 96.8028L209.439 95.9675C209.726 95.9107 209.999 95.7979 210.243 95.6355C210.486 95.4732 210.695 95.2645 210.858 95.0214C211.021 94.7783 211.134 94.5055 211.191 94.2186C211.249 93.9317 211.249 93.6363 211.192 93.3493C211.135 93.0623 211.023 92.7893 210.86 92.5458C210.698 92.3024 210.489 92.0933 210.246 91.9306C210.003 91.7678 209.73 91.6545 209.443 91.5972C209.156 91.5399 208.861 91.5396 208.574 91.5964L208.599 91.592Z" fill="#231F20"/>
<path d="M217.117 77.8008L231.755 75.2197L232.483 79.3484L222.808 81.0544L223.474 84.8328L232.282 83.2797L233.017 87.4501L224.21 89.0032L224.921 93.0401L234.622 91.3297L235.357 95.5001L220.694 98.0856L217.117 77.8008Z" fill="#231F20"/>
<path d="M246.465 87.2725L243.204 87.8475L244.262 93.8445L239.324 94.7152L235.762 74.5138L245.254 72.8401C250.158 71.9754 253.34 74.5104 254.068 78.639C254.348 79.925 254.247 81.2645 253.778 82.4942C253.309 83.7238 252.492 84.7903 251.427 85.5633L256.748 91.6429L250.976 92.6606L246.465 87.2725ZM245.356 76.9329L241.402 77.63L242.511 83.919L246.465 83.2219C246.893 83.1934 247.31 83.0707 247.685 82.8625C248.06 82.6543 248.385 82.3658 248.636 82.0176C248.887 81.6693 249.057 81.27 249.136 80.8481C249.215 80.4261 249.199 79.9921 249.09 79.5769C249.058 79.1407 248.93 78.717 248.715 78.3362C248.5 77.9553 248.204 77.6268 247.847 77.3741C247.49 77.1213 247.081 76.9507 246.651 76.8745C246.22 76.7982 245.778 76.8182 245.356 76.9329V76.9329Z" fill="#231F20"/>
<path d="M332.727 116.164C327.604 115.106 321.999 114.874 316.876 114.057C297.929 111.077 286.801 98.84 280.965 81.8862C275.129 64.9324 281.194 51.969 297.445 41.9999C320.364 27.905 345.522 22.0157 372.196 20.9758C392.74 20.4489 413.262 22.6518 433.226 27.5268C477.04 41.8949 473.684 80.8086 473.058 87.2573C471.525 103.24 463.807 110.974 448.152 114.327C439.891 116.239 431.509 117.591 423.065 118.373C411.916 119.229 400.685 119.188 389.49 119.296C381.978 119.598 374.454 119.393 366.97 118.683C364.045 118.115 361.017 118.435 358.276 119.602C355.534 120.769 353.205 122.73 351.587 125.231C340.706 139.465 327.409 142.188 327.409 142.188C327.409 142.188 338.251 117.056 332.727 116.164Z" fill="#5E578B"/>
<path d="M332.983 136.733C334.122 137.048 342.212 131.666 349.231 120.65C352.466 115.779 355.931 112.511 362.548 113.554C377.757 115.964 392.991 114.473 408.18 112.818C412.678 112.335 417.181 111.971 421.717 111.558C430.633 110.76 439.677 110.696 448.407 108.993C457.785 107.159 464.985 101.951 466.977 91.5459C470.621 72.5593 465.997 56.2347 452.098 42.5689C441.424 32.0754 427.409 29.9025 413.804 27.5112C394.275 24.1606 374.343 23.8741 354.726 26.6621C334.568 29.3994 315.885 35.2308 298.787 46.3469C284.116 55.8139 279.953 64.9762 284.92 81.3435C286.689 87.9419 290.12 93.9766 294.886 98.8712C299.651 103.766 305.592 107.357 312.141 109.302C319.409 111.503 327.387 111.533 335.071 111.898C339.763 112.12 340.365 116.073 340.114 118.792C339.862 121.511 331.819 136.422 332.983 136.733Z" fill="url(#paint0_radial)"/>
<path d="M32.6107 201.049C29.9527 198.988 28.156 196.013 27.5697 192.701C26.3932 186.029 31.8948 180.552 32.459 181.02C37.4999 186.1 45.9303 189.575 52.9532 188.337C57.8159 187.48 59.7934 184.99 59.1375 181.27C58.4816 177.55 54.203 176.842 48.6714 175.564C40.9978 173.649 32.1592 170.589 30.0193 158.454C27.8426 146.109 33.4528 133.054 51.7107 129.835C61.8114 128.054 69.2633 129.784 73.8731 133.589C76.2499 135.468 77.8554 138.153 78.3858 141.136C79.7359 148.793 73.3919 154.418 72.8277 153.95C67.8006 148.412 60.7042 145.38 54.3151 146.507C49.5442 147.348 47.4419 150.204 48.0008 153.374C48.6744 157.194 53.4324 157.937 59.5885 159.44C68.2345 161.408 77.3154 164.769 79.2612 175.803C81.6702 189.466 75.1167 201.561 56.0163 204.928C45.3023 206.792 37.3437 204.919 32.6107 201.049Z" fill="black" stroke="black" stroke-width="2" stroke-linejoin="round"/>
<path d="M85.1944 174.173L85.3927 152.276C85.3712 144.497 87.2639 141.575 91.8514 140.766L93.7197 140.436C98.499 139.594 103.299 141.112 103.267 149.125L102.967 168.786C102.81 175.014 105.299 178.695 109.786 177.904C112.973 177.342 114.663 175.47 116.146 171.829L116.271 146.789C116.25 139.009 118.143 136.087 122.73 135.278L124.598 134.949C129.378 134.106 134.178 135.625 134.146 143.637L134.001 174.571C133.81 181.141 135.188 183.495 138.586 184.135C138.789 184.211 138.408 190.246 130.359 191.665C125.955 192.442 122.483 191.334 120.211 188.837C118.774 187.09 117.779 185.024 117.308 182.812C114.484 190.302 109.978 195.38 102.672 196.668C91.6633 198.618 85.1618 189.839 85.1944 174.173Z" fill="black" stroke="black" stroke-width="2" stroke-linejoin="round"/>
<path d="M143.495 199.394L143.747 133.077C143.743 132.519 145.841 131.246 148.643 130.752C150.453 130.375 152.334 130.564 154.033 131.292C155.732 132.02 157.166 133.252 158.141 134.822C159.103 136.374 159.768 138.091 160.101 139.886C161.882 132.477 166.274 126.757 173.581 125.469C183.681 123.688 192.866 130.858 195.392 145.179C198.937 165.288 192.21 180.785 177.797 183.327C174.731 183.96 171.547 183.673 168.644 182.502C165.741 181.331 163.25 179.327 161.483 176.743L161.264 196.278C161.303 204.158 159.382 206.973 154.795 207.782L153.018 208.095C148.161 208.934 143.361 207.416 143.495 199.394ZM178.76 151.474C177.72 145.577 174.104 142.044 169.333 142.885C165.997 143.473 163.046 146.247 161.608 149.992L161.565 156.088C161.523 164.094 165.389 169.045 171.569 167.955C177.898 166.831 180.129 159.239 178.76 151.474Z" fill="black" stroke="black" stroke-width="2" stroke-linejoin="round"/>
<path d="M201.164 154.851C197.658 134.966 208.308 119.328 224.414 116.488C237.234 114.228 245.169 119.82 246.903 129.654C248.772 140.255 243.936 148.435 223.443 152.049C221.099 152.462 218.672 152.89 215.898 153.156C216.212 154.051 216.685 154.883 217.294 155.61C218.912 159.272 222.33 161.146 227.009 160.321C229.479 159.905 231.806 158.875 233.774 157.326C235.743 155.777 237.291 153.758 238.277 151.454C238.33 151.221 245.546 151.076 246.683 157.523C247.164 160.25 246.596 162.492 245.033 165.141C242.655 169.164 237.432 172.906 229.192 174.359C212.737 177.269 203.554 168.404 201.164 154.851ZM219.981 141.729C230.273 139.914 233.302 136.8 232.664 133.18C232.24 130.778 229.886 128.939 225.958 129.632C220.436 130.606 216.738 135.876 215.639 142.271C217.097 142.192 218.548 142.011 219.981 141.729Z" fill="black" stroke="black" stroke-width="2" stroke-linejoin="round"/>
<path d="M253.489 158.808L253.736 113.683C253.732 113.124 255.73 111.869 258.632 111.357C260.472 110.966 262.389 111.171 264.105 111.943C265.82 112.716 267.244 114.015 268.171 115.653C269.034 117.122 269.643 118.728 269.971 120.401C271.038 113.332 274.951 107.577 280.94 106.521C282.143 106.272 283.385 106.274 284.588 106.526C285.791 106.778 286.929 107.274 287.932 107.985C288.935 108.695 289.781 109.604 290.418 110.655C291.054 111.707 291.468 112.878 291.632 114.096C293.425 124.263 286.037 128.843 285.805 128.651C284.869 127.721 283.715 127.04 282.448 126.672C281.181 126.303 279.842 126.258 278.553 126.541C273.49 127.434 271.388 133.558 271.383 142.796L271.328 155.654C271.25 163.408 269.357 166.373 264.869 167.165L262.993 167.496C258.257 168.339 253.455 166.812 253.489 158.808Z" fill="black" stroke="black" stroke-width="2" stroke-linejoin="round"/>
<path d="M26.5013 206.332C23.841 204.27 22.0436 201.291 21.4589 197.976C20.2823 191.303 25.7771 185.837 26.3481 186.295C31.3905 191.383 39.8194 194.85 46.8424 193.612C51.705 192.755 53.6826 190.265 53.0281 186.553C52.3737 182.841 48.0936 182.125 42.562 180.847C34.8884 178.932 26.0483 175.864 23.9099 163.737C21.7318 151.384 27.3434 138.337 45.593 135.119C55.7021 133.337 63.1539 135.067 67.7554 138.874C70.1334 140.752 71.7392 143.437 72.2681 146.421C73.6167 154.069 67.2727 159.694 66.71 159.235C61.6829 153.697 54.5864 150.665 48.1974 151.792C43.4265 152.633 41.3144 155.482 41.8733 158.652C42.5484 162.48 47.3132 163.214 53.4708 164.725C62.1167 166.692 71.1962 170.045 73.1434 181.088C75.5525 194.75 68.9975 206.837 49.8971 210.205C39.1959 212.092 31.2387 210.227 26.5013 206.332Z" fill="#F69679" stroke="black" stroke-width="2" stroke-linejoin="round"/>
<path d="M79.0861 179.473L79.2648 157.563C79.259 149.823 81.1532 146.909 85.7406 146.101L87.609 145.771C92.3882 144.928 97.1883 146.447 97.1474 154.409L96.8474 174.07C96.69 180.299 99.1799 184.031 103.676 183.238C106.862 182.676 108.551 180.796 110.033 177.155L110.126 152.121C110.12 144.382 112.014 141.468 116.602 140.659L118.47 140.329C123.249 139.487 128.049 141.005 128.008 148.968L127.921 179.883C127.729 186.453 129.106 188.799 132.496 189.44C132.707 189.514 132.328 195.558 124.279 196.978C119.875 197.754 116.403 196.646 114.122 194.15C112.694 192.399 111.702 190.334 111.228 188.124C108.402 195.606 103.888 200.685 96.5898 201.972C85.5216 203.923 79.0549 195.148 79.0861 179.473Z" fill="#F69679" stroke="black" stroke-width="2" stroke-linejoin="round"/>
<path d="M137.377 204.695L137.656 138.382C137.65 137.816 139.741 136.552 142.552 136.057C144.361 135.679 146.243 135.867 147.942 136.595C149.641 137.323 151.076 138.556 152.05 140.127C153.009 141.68 153.673 143.397 154.01 145.191C155.789 137.773 160.183 132.062 167.481 130.775C177.59 128.993 186.767 136.164 189.292 150.485C192.336 167.751 186.11 186.092 171.706 188.632C168.64 189.265 165.456 188.978 162.553 187.807C159.65 186.636 157.158 184.632 155.391 182.048L155.172 201.583C155.205 209.472 153.293 212.286 148.705 213.095L146.929 213.409C142.053 214.242 137.249 212.699 137.377 204.695ZM172.652 156.782C171.61 150.877 167.994 147.343 163.223 148.184C159.887 148.773 156.936 151.546 155.5 155.3L155.413 161.395C155.381 169.408 159.247 174.359 165.419 173.271C171.783 172.149 174.019 164.539 172.652 156.782Z" fill="#F69679" stroke="black" stroke-width="2" stroke-linejoin="round"/>
<path d="M195.057 160.15C191.551 140.266 202.203 124.636 218.3 121.798C231.128 119.536 239.062 125.12 240.797 134.962C242.667 145.563 237.831 153.743 217.338 157.357C214.994 157.77 212.558 158.2 209.791 158.455C210.107 159.353 210.58 160.187 211.189 160.918C212.796 164.573 216.224 166.454 220.903 165.629C223.373 165.212 225.699 164.181 227.668 162.632C229.636 161.083 231.185 159.065 232.171 156.762C232.225 156.529 239.44 156.384 240.577 162.831C241.06 165.567 240.492 167.809 238.928 170.449C236.549 174.472 231.318 178.215 223.086 179.667C206.655 182.564 197.447 173.704 195.057 160.15ZM213.874 147.028C224.166 145.214 227.187 142.101 226.55 138.489C226.125 136.079 223.779 134.239 219.851 134.932C214.329 135.906 210.632 141.176 209.532 147.57C210.99 147.492 212.441 147.311 213.874 147.028V147.028Z" fill="#F69679" stroke="black" stroke-width="2" stroke-linejoin="round"/>
<path d="M247.379 164.116L247.627 118.991C247.622 118.424 249.62 117.177 252.523 116.666C254.362 116.272 256.279 116.476 257.994 117.247C259.709 118.018 261.133 119.316 262.06 120.953C262.924 122.425 263.533 124.033 263.862 125.709C264.929 118.641 268.842 112.885 274.83 111.829C276.034 111.579 277.276 111.58 278.48 111.831C279.683 112.082 280.822 112.579 281.825 113.29C282.828 114 283.674 114.91 284.311 115.962C284.947 117.014 285.36 118.185 285.523 119.404C287.316 129.571 279.919 134.152 279.696 133.959C278.759 133.031 277.605 132.352 276.338 131.985C275.072 131.618 273.733 131.574 272.445 131.858C267.391 132.749 265.287 138.865 265.275 148.112L265.228 160.969C265.151 168.723 263.256 171.68 258.768 172.471L256.892 172.802C252.146 173.639 247.346 172.12 247.379 164.116Z" fill="#F69679" stroke="black" stroke-width="2" stroke-linejoin="round"/>
<path d="M176.753 221.885C174.715 220.303 173.338 218.02 172.889 215.48C171.988 210.375 176.202 206.175 176.634 206.529C180.502 210.422 186.966 213.084 192.346 212.135C196.074 211.478 197.586 209.568 197.085 206.724C196.583 203.88 193.305 203.331 189.064 202.35C183.189 200.884 176.416 198.561 174.771 189.236C173.102 179.769 177.401 169.766 191.397 167.298C199.137 165.933 204.849 167.256 208.399 170.174C210.221 171.612 211.452 173.668 211.861 175.953C212.89 181.792 208.031 186.132 207.574 185.782C203.712 181.535 198.28 179.216 193.401 180.077C189.739 180.722 188.129 182.907 188.557 185.334C189.075 188.27 192.726 188.83 197.436 189.986C204.067 191.5 211.056 194.069 212.547 202.527C214.395 213.003 209.371 222.265 194.733 224.846C186.484 226.301 180.384 224.874 176.753 221.885Z" fill="black" stroke="black" stroke-width="2" stroke-linejoin="round"/>
<path d="M216.475 203.821C214.038 190 219.392 175.494 230.944 173.457C233.311 173.021 235.755 173.316 237.95 174.302C240.146 175.288 241.989 176.919 243.236 178.978C243.555 176.803 244.51 174.77 245.981 173.136C247.429 171.726 249.293 170.821 251.297 170.556C253.949 170.088 256.263 171.065 256.299 171.661L256.128 201.318C256.051 206.346 257.108 208.146 259.715 208.641C259.871 208.699 259.578 213.326 253.331 214.428C249.744 215.06 247.132 214.05 245.426 211.934C244.431 210.571 243.727 209.018 243.357 207.371C241.757 212.925 237.909 217.147 232.354 218.127C224.705 219.475 218.263 213.963 216.475 203.821ZM242.51 194.569L242.462 189.417C240.899 186.408 238.737 184.63 235.434 185.213C230.271 186.123 228.073 192.531 229.171 198.761C229.895 202.865 232.6 205.235 235.828 204.666C239.794 203.94 242.522 200.097 242.51 194.569Z" fill="black" stroke="black" stroke-width="2" stroke-linejoin="round"/>
<path d="M266.499 195.516L266.52 180.66L265.686 180.807C262.742 181.326 260.654 179.975 260.194 177.364C259.959 176.029 262.649 176.656 263.744 174.82C264.402 173.672 262.64 168.995 265.367 168.514L266.66 168.286L266.642 166.913C266.574 159.408 268.665 155.755 274.762 154.679C277.781 154.147 280.17 155.111 280.106 155.724L280.055 165.924L284.151 165.202C287.379 164.633 289.391 165.998 289.851 168.608C290.087 169.943 290.163 173.301 289.076 175.135C288.326 176.299 287.407 176.986 284.679 177.467L279.733 178.339L279.639 192.434C279.609 196.069 281.13 197.529 283.207 197.163C283.965 196.989 284.68 196.667 285.312 196.215C285.944 195.762 286.48 195.188 286.888 194.527C287.202 194.214 289.118 195.424 289.666 198.527C290.064 200.701 289.669 202.946 288.554 204.854C287.017 207.456 284.289 209.15 280.41 209.834C271.299 211.423 266.419 205.988 266.499 195.516Z" fill="black" stroke="black" stroke-width="2" stroke-linejoin="round"/>
<path d="M294.112 187.714L294.257 170.927C294.247 164.969 295.7 162.726 299.212 162.107L300.646 161.854C304.308 161.208 307.988 162.374 307.961 168.511L307.737 183.583C307.615 188.352 309.522 191.215 312.966 190.608C315.41 190.177 316.706 188.744 317.846 185.946L317.903 166.758C317.885 160.801 319.338 158.558 322.858 157.937L324.293 157.684C327.954 157.039 330.925 158.33 330.898 164.466L330.775 188.155C330.623 193.196 332.397 194.87 334.996 195.366C335.153 195.425 334.859 200.052 328.687 201.14C325.351 201.728 322.626 200.91 320.908 198.968C319.812 197.629 319.052 196.047 318.692 194.354C316.521 200.086 313.057 203.948 307.46 204.934C299.042 206.453 294.088 199.724 294.112 187.714Z" fill="black" stroke="black" stroke-width="2" stroke-linejoin="round"/>
<path d="M338.537 190.855L338.758 156.261C338.75 155.824 340.284 154.865 342.511 154.472C343.921 154.171 345.39 154.327 346.705 154.918C348.021 155.508 349.113 156.504 349.824 157.758C350.484 158.891 350.951 160.125 351.207 161.41C352.024 155.994 355.021 151.579 359.65 150.762C360.574 150.57 361.527 150.571 362.451 150.763C363.374 150.956 364.248 151.337 365.018 151.882C365.788 152.427 366.437 153.125 366.925 153.932C367.414 154.74 367.73 155.639 367.856 156.574C369.229 164.364 363.552 167.868 363.381 167.726C362.666 167.019 361.786 166.501 360.82 166.221C359.854 165.941 358.834 165.906 357.852 166.121C353.973 166.805 352.357 171.493 352.31 178.588L352.276 188.441C352.219 194.411 350.765 196.654 347.32 197.261L345.886 197.514C342.189 198.157 338.509 196.992 338.537 190.855Z" fill="black" stroke="black" stroke-width="2" stroke-linejoin="round"/>
<path d="M410.697 174.063C410.56 179.187 411.677 180.891 414.276 181.387C414.441 181.444 414.148 186.071 407.975 187.159C403.38 187.97 400.404 186.164 398.849 182.809C398.418 181.93 398.127 180.988 397.987 180.019C396.662 185.525 393.271 189.752 387.832 190.711C380.084 192.077 373.119 186.572 371.182 175.587C368.829 162.242 373.552 148.302 384.67 146.342C387.007 145.909 389.419 146.145 391.628 147.023C393.837 147.901 395.753 149.385 397.155 151.304L397.262 135.134C397.252 129.176 398.706 126.933 402.218 126.314L403.652 126.061C407.314 125.415 410.994 126.581 410.966 132.718L410.697 174.063ZM397.052 162.133C395.354 159.233 393.327 157.346 389.665 157.991C384.503 158.902 382.765 164.996 383.834 171.06C384.618 175.505 387.413 177.945 390.958 177.32C394.503 176.695 397.085 173.049 397.094 167.638L397.052 162.133Z" fill="black" stroke="black" stroke-width="2" stroke-linejoin="round"/>
<path d="M416.995 168.464C414.558 154.643 419.912 140.136 431.422 138.107C433.789 137.671 436.233 137.966 438.428 138.952C440.624 139.938 442.467 141.569 443.713 143.628C444.033 141.455 444.985 139.424 446.45 137.788C447.9 136.38 449.763 135.475 451.766 135.208C454.427 134.739 456.741 135.715 456.768 136.312L456.605 165.968C456.529 170.996 457.586 172.796 460.184 173.292C460.341 173.351 460.047 177.978 453.808 179.078C450.222 179.71 447.602 178.702 445.896 176.586C444.9 175.224 444.198 173.669 443.835 172.021C442.234 177.576 438.386 181.797 432.831 182.777C425.225 184.118 418.783 178.606 416.995 168.464ZM443.03 159.212L442.981 154.06C441.41 151.052 439.248 149.275 435.953 149.855C430.782 150.767 428.584 157.175 429.682 163.406C430.406 167.509 433.12 169.877 436.348 169.308C440.313 168.583 443.041 164.739 443.03 159.212Z" fill="black" stroke="black" stroke-width="2" stroke-linejoin="round"/>
<path d="M499.009 134.394C499.437 136.821 499.027 138.691 497.755 142.355L486.407 176.177C483.506 184.893 480.312 190.728 473.648 191.903C470.128 192.523 467.312 192.065 465.396 190.416C463.88 189.161 462.903 187.373 462.666 185.42C462.165 182.575 463.626 179.548 463.858 179.594C465.089 180.367 466.561 180.661 467.994 180.421C470.58 179.965 472.42 178.256 474.566 172.382L475.078 171.088C473.306 170.798 472.041 169.378 471.209 166.756L465.785 148.19C464.08 142.273 461.895 140.758 459.236 140.796C458.929 140.765 459.056 133.484 466.32 132.203C467.576 131.935 468.881 132.01 470.098 132.418C471.315 132.827 472.4 133.555 473.24 134.526C475.224 136.507 476.772 139.923 477.887 144.93L480.473 155.791L488.363 128.402C488.437 128.139 497.782 127.438 499.009 134.394Z" fill="black" stroke="black" stroke-width="2" stroke-linejoin="round"/>
<path d="M172.069 225.952C170.033 224.369 168.656 222.087 168.205 219.547C167.303 214.434 171.516 210.234 171.95 210.596C175.819 214.49 182.282 217.151 187.662 216.203C191.39 215.545 192.903 213.636 192.401 210.792C191.9 207.947 188.629 207.397 184.38 206.418C178.504 204.943 171.732 202.628 170.088 193.303C168.417 183.828 172.718 173.833 186.714 171.365C194.462 169.999 200.165 171.324 203.716 174.241C205.537 175.68 206.769 177.736 207.177 180.021C208.207 185.859 203.347 190.199 202.89 189.85C199.036 185.602 193.597 183.284 188.717 184.144C185.056 184.79 183.446 186.975 183.874 189.402C184.39 192.329 188.042 192.898 192.761 194.053C199.382 195.56 206.379 198.127 207.872 206.593C209.719 217.069 204.696 226.331 190.058 228.912C181.801 230.368 175.709 228.94 172.069 225.952Z" fill="#FFD700" stroke="black" stroke-width="2" stroke-linejoin="round"/>
<path d="M211.788 207.889C209.351 194.068 214.705 179.562 226.257 177.525C228.624 177.086 231.068 177.379 233.265 178.363C235.462 179.348 237.307 180.978 238.555 183.036C238.874 180.863 239.83 178.833 241.302 177.203C242.75 175.794 244.614 174.889 246.618 174.623C249.27 174.155 251.592 175.13 251.62 175.727L251.448 205.385C251.372 210.412 252.429 212.212 255.034 212.699C255.191 212.757 254.899 217.393 248.66 218.493C245.073 219.125 242.453 218.117 240.747 216.001C239.751 214.639 239.05 213.084 238.686 211.436C237.086 216.99 233.229 221.214 227.683 222.192C220.026 223.542 213.575 218.023 211.788 207.889ZM237.865 198.63L237.816 193.478C236.253 190.468 234.091 188.691 230.788 189.273C225.625 190.184 223.427 196.591 224.524 202.814C225.249 206.926 227.954 209.295 231.182 208.726C235.106 208.008 237.833 204.156 237.865 198.63Z" fill="#FFD700" stroke="black" stroke-width="2" stroke-linejoin="round"/>
<path d="M261.815 199.584L261.85 184.709L261.016 184.856C258.08 185.373 255.984 184.023 255.523 181.412C255.287 180.069 255.22 176.718 256.299 174.886C256.955 173.729 257.968 173.035 260.695 172.554L261.988 172.326L261.968 170.945C261.901 163.44 263.993 159.795 270.09 158.72C273.109 158.187 275.496 159.142 275.434 159.764L275.384 169.964L279.479 169.242C282.707 168.673 284.719 170.038 285.178 172.64C285.415 173.983 285.491 177.341 284.412 179.174C283.654 180.339 282.735 181.026 280.016 181.505L275.061 182.379L274.967 196.474C274.937 200.109 276.459 201.569 278.535 201.203C279.293 201.03 280.009 200.708 280.641 200.256C281.273 199.803 281.809 199.229 282.216 198.567C282.529 198.245 284.447 199.464 284.994 202.567C285.387 204.74 284.996 206.982 283.89 208.893C282.346 211.496 279.617 213.19 275.739 213.874C266.642 215.495 261.735 210.056 261.815 199.584Z" fill="#FFD700" stroke="black" stroke-width="2" stroke-linejoin="round"/>
<path d="M289.428 191.782L289.597 174.991C289.579 169.034 291.033 166.791 294.544 166.172L295.987 165.917C299.64 165.273 303.329 166.437 303.293 172.576L303.07 187.648C302.947 192.417 304.862 195.278 308.307 194.671C310.743 194.242 312.045 192.799 313.179 190.011L313.235 170.823C313.217 164.866 314.67 162.623 318.19 162.002L319.625 161.749C323.286 161.104 326.966 162.27 326.939 168.406L326.816 192.095C326.673 197.135 327.73 198.935 330.327 199.423C330.483 199.481 330.191 204.117 324.019 205.205C320.683 205.793 317.959 204.975 316.24 203.033C315.144 201.69 314.384 200.106 314.023 198.41C311.853 204.151 308.395 208.046 302.807 209.031C294.366 210.52 289.404 203.792 289.428 191.782Z" fill="#FFD700" stroke="black" stroke-width="2" stroke-linejoin="round"/>
<path d="M333.848 194.915L334.036 160.326C334.037 159.896 335.563 158.939 337.79 158.546C339.2 158.245 340.669 158.4 341.984 158.991C343.3 159.582 344.392 160.577 345.103 161.832C345.761 162.962 346.228 164.193 346.485 165.476C347.302 160.06 350.3 155.652 354.887 154.843C355.81 154.652 356.763 154.652 357.686 154.844C358.609 155.036 359.482 155.416 360.252 155.961C361.021 156.505 361.671 157.202 362.159 158.008C362.648 158.814 362.965 159.713 363.092 160.647C364.466 168.437 358.798 171.948 358.618 171.807C357.903 171.101 357.023 170.584 356.057 170.303C355.092 170.023 354.072 169.988 353.089 170.202C349.211 170.886 347.596 175.583 347.589 182.662L347.555 192.515C347.498 198.485 346.046 200.736 342.601 201.344L341.167 201.596C337.502 202.225 333.822 201.06 333.848 194.915Z" fill="#FFD700" stroke="black" stroke-width="2" stroke-linejoin="round"/>
<path d="M406.047 178.126C405.91 183.25 407.028 184.953 409.633 185.44C409.79 185.498 409.498 190.133 403.325 191.222C398.73 192.032 395.754 190.226 394.199 186.871C393.768 185.992 393.477 185.051 393.337 184.082C392.012 189.587 388.621 193.815 383.182 194.774C375.434 196.14 368.467 190.626 366.532 179.649C364.179 166.304 368.903 152.373 380.022 150.413C382.359 149.98 384.771 150.216 386.98 151.094C389.188 151.972 391.104 153.456 392.507 155.375L392.614 139.205C392.604 133.247 394.058 131.004 397.569 130.385L399.004 130.132C402.665 129.486 406.345 130.652 406.318 136.789L406.047 178.126ZM392.402 166.195C390.704 163.295 388.677 161.408 385.016 162.054C379.853 162.964 378.115 169.058 379.184 175.122C379.968 179.568 382.763 182.008 386.308 181.382C389.853 180.757 392.434 177.103 392.436 171.702L392.402 166.195Z" fill="#FFD700" stroke="black" stroke-width="2" stroke-linejoin="round"/>
<path d="M412.311 172.532C409.874 158.711 415.228 144.205 426.739 142.175C429.105 141.739 431.547 142.032 433.742 143.017C435.937 144.002 437.781 145.631 439.028 147.688C439.348 145.517 440.301 143.488 441.767 141.856C443.219 140.446 445.085 139.541 447.091 139.274C449.743 138.807 452.057 139.783 452.093 140.379L451.922 170.037C451.845 175.064 452.902 176.864 455.499 177.352C455.656 177.411 455.372 182.045 449.125 183.146C445.538 183.778 442.918 182.77 441.22 180.653C440.218 179.293 439.514 177.739 439.152 176.09C437.551 181.644 433.703 185.865 428.148 186.845C420.541 188.186 414.098 182.666 412.311 172.532ZM438.346 163.28L438.298 158.128C436.735 155.119 434.564 153.343 431.27 153.924C426.099 154.835 423.9 161.243 424.997 167.465C425.722 171.577 428.436 173.946 431.664 173.376C435.63 172.651 438.356 168.799 438.346 163.28Z" fill="#FFD700" stroke="black" stroke-width="2" stroke-linejoin="round"/>
<path d="M494.325 138.462C494.753 140.889 494.343 142.759 493.071 146.423L481.723 180.245C478.824 188.969 475.637 194.794 468.964 195.971C465.444 196.591 462.63 196.141 460.714 194.493C459.187 193.224 458.206 191.417 457.975 189.446C457.472 186.593 458.935 183.575 459.167 183.62C460.387 184.387 461.846 184.683 463.27 184.453C465.855 183.997 467.695 182.288 469.842 176.414L470.353 175.12C468.58 174.822 467.315 173.402 466.485 170.788L461.092 152.156C459.378 146.241 457.202 144.724 454.533 144.756C454.226 144.724 454.354 137.452 461.619 136.171C462.875 135.904 464.179 135.978 465.397 136.385C466.615 136.792 467.702 137.516 468.546 138.484C470.522 140.475 472.078 143.881 473.186 148.897L475.772 159.759L483.662 132.37C483.753 132.207 493.098 131.506 494.325 138.462Z" fill="#FFD700" stroke="black" stroke-width="2" stroke-linejoin="round"/>
<path d="M301.47 84.1709C302.009 81.1777 306.357 77.745 306.727 78.084C309.621 80.1903 313.052 81.4366 316.623 81.6797C319.332 81.7267 320.41 81.3044 320.604 80.2123C320.846 78.8538 318.62 78.7132 315.717 78.0553C309.787 76.7617 304.032 74.2161 305.357 66.8015C306.744 59.0145 313.061 54.7445 323.854 54.9398C328.942 55.0229 332.295 55.8423 334.336 57.125C336.376 58.4078 337.075 60.1251 336.723 62.0792C336.093 65.6302 331.255 68.771 330.984 68.5521C328.525 66.4304 325.428 65.1907 322.184 65.0297C319.527 64.9823 318.509 65.4026 318.314 66.4947C318.12 67.5868 320.635 67.8055 323.732 68.4893C330.912 70.1903 335.509 73.2927 334.384 79.6402C332.92 87.8707 326.634 91.9719 314.794 91.7892C309.153 91.7001 305.586 90.8327 303.607 89.4616C302.743 88.9138 302.072 88.1088 301.688 87.1598C301.305 86.2108 301.229 85.1655 301.47 84.1709V84.1709Z" fill="black" stroke="black" stroke-width="2" stroke-linejoin="round"/>
<path d="M337.096 85.3875L341.29 61.9093C342.031 57.771 344.381 55.7828 348.089 55.8427L350.082 55.8783C353.954 55.9353 355.614 57.9902 354.899 62.1241L353.807 68.2249L361.889 68.3565L362.98 62.2557C363.721 58.1174 366.071 56.1293 369.78 56.1892L371.771 56.2164C375.644 56.2817 377.305 58.3367 376.589 62.4706L372.395 85.9487C371.678 89.9796 369.253 92.0757 365.38 92.0104L363.38 91.9846C359.68 91.9232 358.061 89.7662 358.786 85.7339L359.916 79.4114L351.836 79.2881L350.708 85.619C349.991 89.6498 347.566 91.7459 343.693 91.6806L341.701 91.6534C337.99 91.5768 336.379 89.4183 337.096 85.3875Z" fill="black" stroke="black" stroke-width="2" stroke-linejoin="round"/>
<path d="M378.592 74.2447C380.505 63.5872 389.987 55.9554 401.139 56.139C412.292 56.3225 418.957 64.1774 417.044 74.8349C416.089 80.0532 413.293 84.7557 409.165 88.0876C405.037 91.4195 399.85 93.1596 394.548 92.9917C383.315 92.8395 376.675 84.9802 378.592 74.2447ZM403.766 74.6476C404.492 70.6152 402.675 68.0201 399.026 67.9583C395.378 67.8964 392.622 70.2657 391.873 74.457C391.156 78.4879 392.972 81.0315 396.681 81.0914C400.39 81.1513 403.05 78.6784 403.766 74.6476Z" fill="black" stroke="black" stroke-width="2" stroke-linejoin="round"/>
<path d="M429.917 68.9436L425.649 68.836C421.56 68.7658 419.763 66.7177 420.436 62.8752L420.466 62.7065C421.121 59.0563 423.605 57.2423 427.701 57.3028L449.555 57.6546C453.764 57.721 455.48 59.6028 454.842 63.25L454.81 63.4104C454.133 67.2278 451.722 69.2096 447.522 69.1418L443.477 69.0809L440.286 87.0245C439.561 91.0568 437.064 93.1396 433.149 93.0817L431.218 93.0525C427.509 92.9926 426.012 90.84 426.729 86.8092L429.917 68.9436Z" fill="black" stroke="black" stroke-width="2" stroke-linejoin="round"/>
<path d="M296.927 81.5484C297.466 78.5551 301.814 75.1224 302.184 75.4614C305.077 77.571 308.508 78.8177 312.08 79.0571C314.789 79.1041 315.867 78.6818 316.061 77.5897C316.303 76.2312 314.077 76.0906 311.176 75.4411C305.246 74.1475 299.489 71.5935 300.815 64.1872C302.203 56.4003 308.518 52.1219 319.312 52.3256C324.401 52.4087 327.753 53.228 329.796 54.5191C331.838 55.8102 332.527 57.4775 332.183 59.4733C331.553 63.0243 326.713 66.1567 326.444 65.9462C323.986 63.8217 320.888 62.5791 317.643 62.4155C314.987 62.3764 313.969 62.7967 313.774 63.8888C313.58 64.9809 316.095 65.1995 319.183 65.8849C326.363 67.5859 330.969 70.6868 329.844 77.0343C328.378 85.2564 322.094 89.366 310.252 89.175C304.612 89.0859 301.045 88.2185 299.066 86.8474C298.2 86.2984 297.529 85.492 297.145 84.5415C296.762 83.591 296.685 82.5443 296.927 81.5484V81.5484Z" fill="#89BCE6" stroke="black" stroke-width="2" stroke-linejoin="round"/>
<path d="M332.561 82.7983L336.755 59.3201C337.494 55.1735 339.845 53.1937 343.554 53.2535L345.545 53.2808C349.418 53.3461 351.079 55.4011 350.363 59.535L349.272 65.6357L357.352 65.759L358.443 59.6582C359.184 55.5199 361.536 53.5401 365.243 53.5917L367.236 53.6273C371.107 53.6842 372.768 55.7392 372.052 59.8731L367.859 83.3513C367.142 87.3821 364.716 89.4782 360.835 89.4144L358.844 89.3871C355.143 89.3257 353.525 87.1687 354.25 83.1364L355.381 76.8223L347.3 76.6906L346.164 82.9798C345.447 87.0106 343.02 89.0984 339.149 89.0414L337.147 89.0073C333.449 88.9543 331.831 86.8056 332.561 82.7983Z" fill="#89BCE6" stroke="black" stroke-width="2" stroke-linejoin="round"/>
<path d="M374.052 71.6303C375.965 60.9728 385.447 53.341 396.598 53.5163C407.749 53.6915 414.416 61.5546 412.502 72.2122C411.549 77.4318 408.755 82.136 404.627 85.4696C400.499 88.8031 395.312 90.5445 390.008 90.3773C378.776 90.2251 372.167 82.3516 374.052 71.6303ZM399.225 72.0249C399.95 67.9925 398.134 65.3974 394.487 65.3439C390.839 65.2904 388.081 67.643 387.332 71.8343C386.615 75.8652 388.431 78.4088 392.14 78.4687C395.848 78.5286 398.508 76.0557 399.225 72.0249V72.0249Z" fill="#89BCE6" stroke="black" stroke-width="2" stroke-linejoin="round"/>
<path d="M425.377 66.3211L421.109 66.2135C417.022 66.1516 415.223 64.0952 415.896 60.2527L415.928 60.0923C416.581 56.4338 419.065 54.6198 423.162 54.6886L445.015 55.0321C449.224 55.0984 450.94 56.9802 450.302 60.6274L450.272 60.7962C449.593 64.6053 447.182 66.5871 442.982 66.5193L438.938 66.4584L435.743 84.3853C435.018 88.4176 432.521 90.5004 428.608 90.4508L426.675 90.4133C422.968 90.3617 421.46 88.2023 422.186 84.17L425.377 66.3211Z" fill="#89BCE6" stroke="black" stroke-width="2" stroke-linejoin="round"/>
</g>
<defs>
<radialGradient id="paint0_radial" cx="0" cy="0" r="1" gradientUnits="userSpaceOnUse" gradientTransform="translate(376 81) rotate(133.152) scale(65.7951)">
<stop stop-color="#F3F2F8"/>
<stop offset="0.41" stop-color="#F1EFF7"/>
<stop offset="0.65" stop-color="#E8E7F2"/>
<stop offset="0.85" stop-color="#DBD9EA"/>
<stop offset="1" stop-color="#CAC8E0"/>
</radialGradient>
<clipPath id="clip0">
<rect width="483.039" height="191.816" fill="white" transform="translate(0.613281 84.6382) rotate(-10)"/>
</clipPath>
</defs>
</svg>
