<?xml version="1.0" encoding="utf-8"?>
<!-- Generator: Adobe Illustrator 25.3.1, SVG Export Plug-In . SVG Version: 6.00 Build 0)  -->
<svg version="1.1" id="Layer_1" xmlns="http://www.w3.org/2000/svg" xmlns:xlink="http://www.w3.org/1999/xlink" x="0px" y="0px"
	 viewBox="0 0 209 40" style="enable-background:new 0 0 209 40;" xml:space="preserve">
<style type="text/css">
	.st0{fill:#FFFFFF;}
	.st1{fill:#BDBBD8;}
</style>
<g>
	<rect class="st0" width="208.8" height="40"/>
	<g>
		<g>
			<rect x="107.2" y="5.6" class="st1" width="95.7" height="28.8"/>
			<g>
				<path d="M12.6,26.1V12.8c0-0.9,0.6-1.5,1.4-1.5h5.3c3.5,0,5.5,1.5,5.5,4.2c0,1.8-1,2.9-2.9,3.5c2.4,0.6,3.5,2.1,3.5,4
					c0,3-1.9,4.5-6.2,4.5H14C13.2,27.5,12.6,27,12.6,26.1z M19,18.4c1.9,0,3.1-1,3.1-2.6c0-1.6-1.1-2.4-3.2-2.4h-3.8v5H19z
					 M19.1,25.5c2.6,0,3.7-0.8,3.7-2.7c0-1.7-1.2-2.6-3.6-2.6h-4v5.2H19.1z"/>
				<path d="M33.5,15.2c3.7,0,6.3,2.7,6.3,6.4c0,3.7-2.6,6.3-6.3,6.3c-3.7,0-6.3-2.6-6.3-6.4C27.2,17.8,29.8,15.2,33.5,15.2z
					 M33.5,17.2c-2.3,0-4,1.8-4,4.3c0,2.5,1.7,4.3,4,4.3s4-1.8,4-4.3C37.5,19.1,35.8,17.2,33.5,17.2z"/>
				<path d="M47.7,15.2c3.7,0,6.3,2.7,6.3,6.4c0,3.7-2.6,6.3-6.3,6.3c-3.7,0-6.3-2.6-6.3-6.4C41.4,17.8,44,15.2,47.7,15.2z
					 M47.7,17.2c-2.3,0-4,1.8-4,4.3c0,2.5,1.7,4.3,4,4.3c2.3,0,4-1.8,4-4.3C51.7,19.1,50,17.2,47.7,17.2z"/>
				<path d="M56.3,10.6c0-0.1,0.4-0.3,0.9-0.3c0.8,0,1.6,0.4,1.6,2.1v8.4l4.2-4.7c0.5-0.6,1-0.9,1.5-0.9c0.9,0,1.4,0.9,1.3,1
					l-4.4,4.8l5.1,5.5c0.1,0.1-0.5,1-1.4,1c-0.5,0-1-0.2-1.5-0.9l-4.8-5.2v4.8c0,0.9-0.5,1.2-1.1,1.2h-0.3c-0.7,0-1.1-0.3-1.1-1.2
					V10.6z"/>
				<path d="M72.3,12.7c0-0.9,0.6-1.4,1.5-1.4h0.7c1,0,1.3,0.4,1.7,1.3l3.8,8.6l3.9-8.6c0.4-1,0.7-1.3,1.7-1.3h0.6
					c0.9,0,1.5,0.6,1.5,1.4v13.8c0,0.8-0.3,1.2-1.1,1.2h-0.4c-0.7,0-1-0.4-1-1.2V14.6l-3.6,8.1c-0.3,0.6-0.6,1.1-1.7,1.1
					c-1.1,0-1.4-0.5-1.7-1.1l-3.5-8v11.8c0,0.8-0.3,1.2-1.1,1.2h-0.4c-0.7,0-1-0.4-1-1.2V12.7z"/>
				<path d="M93,31.8l2-4.9c-0.6-0.1-0.9-0.2-1.1-0.7l-4.3-10.1c-0.1-0.2,0.5-0.7,1.3-0.7c0.7,0,1.2,0.3,1.6,1.4l3.3,8.3l2.9-8.3
					c0.4-1.1,0.9-1.5,1.6-1.5c0.7,0,1.4,0.6,1.3,0.7l-5.7,15c-0.4,1.1-1,1.4-1.5,1.4C93.6,32.4,92.9,31.9,93,31.8z"/>
				<path d="M119.7,27.2l-6.2-15.5c0-0.1,0.2-0.3,0.6-0.4c0.3-0.1,0.7,0.1,0.9,0.6l5.5,14.3l5.5-14.3c0.2-0.6,0.6-0.7,0.9-0.6
					c0.3,0.1,0.6,0.3,0.6,0.4l-6.2,15.5c-0.1,0.3-0.3,0.5-0.8,0.5C120,27.7,119.8,27.5,119.7,27.2z"/>
				<path d="M136.5,20.7h0.3v-0.6c0-2.2-1.4-3.5-3.6-3.5c-2.1,0-3.4,1-4,2.2c-0.1,0-0.7-0.1-0.7-0.7c0-0.3,0.3-0.8,0.7-1.2
					c0.8-0.8,2.1-1.5,4.1-1.5c3,0,4.7,1.7,4.7,4.6v7.5c0,0-0.2,0.1-0.4,0.1c-0.4,0-0.8-0.2-0.8-1.2v-1.2c-0.8,1.5-2.5,2.6-4.7,2.6
					c-2.5,0-4.1-1.3-4.1-3.3C128,21.9,130.6,20.7,136.5,20.7z M136.7,21.6h-0.3c-5.1,0.1-7.2,0.9-7.2,2.9c0,1.4,1.2,2.2,3,2.2
					c2.6,0,4.6-1.7,4.6-4V21.6z"/>
				<path d="M146.5,15.4c2,0,3.3,0.7,4.1,1.5c0.6,0.6,0.9,1.3,0.9,1.7c0,0.6-0.7,0.7-0.8,0.6c-0.6-1.4-1.8-2.7-4.2-2.7
					c-2.8,0-4.8,2.2-4.8,5.1c0,2.9,2,5.1,4.8,5.1c2.4,0,3.7-1.3,4.2-2.7c0.1-0.1,0.8,0,0.8,0.6c0,0.3-0.3,1-0.9,1.7
					c-0.8,0.8-2.1,1.5-4.1,1.5c-3.5,0-6-2.7-6-6.2C140.5,18.1,143,15.4,146.5,15.4z"/>
				<path d="M159.3,15.4c2,0,3.3,0.7,4.1,1.5c0.6,0.6,0.9,1.3,0.9,1.7c0,0.6-0.7,0.7-0.8,0.6c-0.6-1.4-1.8-2.7-4.2-2.7
					c-2.8,0-4.8,2.2-4.8,5.1c0,2.9,2,5.1,4.8,5.1c2.4,0,3.7-1.3,4.2-2.7c0.1-0.1,0.8,0,0.8,0.6c0,0.3-0.3,1-0.9,1.7
					c-0.8,0.8-2.1,1.5-4.1,1.5c-3.5,0-6-2.7-6-6.2C153.3,18.1,155.8,15.4,159.3,15.4z"/>
				<path d="M167.6,11.1c0.6,0,0.9,0.3,0.9,0.9c0,0.6-0.3,0.9-0.9,0.9c-0.5,0-0.8-0.3-0.8-0.9C166.8,11.4,167.1,11.1,167.6,11.1z
					 M167,16.2c0-0.5,0.2-0.6,0.5-0.6h0.2c0.3,0,0.6,0.1,0.6,0.6V27c0,0.5-0.2,0.6-0.6,0.6h-0.2c-0.3,0-0.5-0.1-0.5-0.6V16.2z"/>
				<path d="M182,20.7V27c0,0.5-0.2,0.6-0.6,0.6h-0.2c-0.3,0-0.5-0.1-0.5-0.6v-6.2c0-2.6-1.3-4.2-3.6-4.2c-2,0-3.4,1.1-4.2,2.7V27
					c0,0.5-0.2,0.6-0.6,0.6h-0.2c-0.3,0-0.5-0.1-0.5-0.6V15.8c0,0,0.2-0.1,0.4-0.1c0.4,0,0.8,0.2,0.8,1.2v1.1
					c0.8-1.5,2.3-2.5,4.2-2.5C180.4,15.4,182,17.6,182,20.7z"/>
				<path d="M190.5,15.4c3.3,0,5.4,2.3,5.4,5.8v0.1c0,0.4-0.2,0.4-0.5,0.4h-9.6v0.3c0.2,2.8,2.1,4.6,4.9,4.6c2.5,0,3.6-1.2,4.2-2.4
					c0.1-0.1,0.7,0.1,0.7,0.7c0,0.3-0.2,0.8-0.8,1.3c-0.7,0.7-2.2,1.5-4.2,1.5c-3.6,0-6.1-2.6-6.1-6.1
					C184.6,18.1,187.1,15.4,190.5,15.4z M190.5,16.5c-2.5,0-4.3,1.8-4.7,4.3h8.8C194.5,18.2,192.9,16.5,190.5,16.5z"/>
			</g>
		</g>
	</g>
</g>
</svg>
